<svg width="320" height="272" viewBox="0 0 320 272" fill="none" xmlns="http://www.w3.org/2000/svg">
<g clip-path="url(#clip0_105_19)">
<path d="M352 -27.2H-32V299.2H352V-27.2Z" fill="white"/>
<path d="M352 -27.2H-32V299.2H352V-27.2Z" fill="white"/>
<path d="M352 -27.2H-32V299.2H352V-27.2Z" fill="#1A1D20"/>
<path d="M152.928 86.1691H142.555C141.991 86.1691 141.588 86.5091 141.588 86.7839V122.399L111.911 86.3731C111.831 86.2371 111.348 86.1691 111.188 86.1691H100.491C100.091 86.1691 99.688 86.5091 99.688 86.7839V127.731H111.991V104.625L141.588 140.651C141.668 140.787 142.151 140.855 142.311 140.855H152.928C153.491 140.855 153.811 140.512 153.811 140.24V86.7839C153.811 86.5091 153.491 86.1691 152.928 86.1691Z" fill="#F9F6F2"/>
<path d="M205.281 102.438C205.281 108.453 195.791 108.453 195.791 108.453H186.141V95.9441H195.791C195.791 95.9441 205.281 95.8761 205.281 102.438ZM217.587 101.823C217.587 85.7582 195.791 86.1691 195.791 86.1691H174.801C174.321 86.1691 173.917 86.5091 173.917 86.7839V118.639H195.791C195.791 118.639 206.167 118.228 206.167 124.654C206.167 129.919 199.814 130.873 195.791 130.873H186.221V140.855H195.791C200.134 140.855 218.471 140.172 218.471 124.926C218.471 124.926 218.874 116.452 208.661 113.511C213.564 111.802 217.587 108.178 217.587 101.823Z" fill="#F9F6F2"/>
<path d="M115.19 151.122V164.563H112.19L104.31 156.403V164.563H100.697V151.122H103.723L111.577 159.282V151.122H115.19Z" fill="#F9F6F2"/>
<path d="M123.821 151.122H127.474V164.563H123.821V151.122Z" fill="#F9F6F2"/>
<path d="M150.494 164.563L150.467 156.505L145.814 163.147H144.16L139.534 156.675V164.563H136.107V151.122H139.134L145.04 159.475L150.867 151.122H153.88L153.92 164.563H150.494Z" fill="#F9F6F2"/>
<path d="M174.151 157.571C175.057 157.82 175.764 158.228 176.271 158.795C176.784 159.361 177.044 160.061 177.044 160.891C177.044 162.07 176.504 162.977 175.431 163.611C174.354 164.246 172.784 164.563 170.724 164.563H162.551V151.122H170.271C172.197 151.122 173.677 151.436 174.711 152.063C175.741 152.692 176.257 153.544 176.257 154.624C176.257 155.276 176.071 155.856 175.697 156.369C175.331 156.876 174.817 157.276 174.151 157.571ZM166.177 153.468V156.63H169.817C170.724 156.63 171.407 156.5 171.871 156.233C172.341 155.961 172.577 155.565 172.577 155.043C172.577 154.516 172.341 154.122 171.871 153.865C171.407 153.601 170.724 153.468 169.817 153.468H166.177ZM170.457 162.217C171.417 162.217 172.141 162.087 172.631 161.821C173.117 161.549 173.364 161.135 173.364 160.574C173.364 159.458 172.394 158.897 170.457 158.897H166.177V162.217H170.457Z" fill="#F9F6F2"/>
<path d="M191.717 164.79C189.457 164.79 187.697 164.263 186.437 163.203C185.184 162.138 184.557 160.619 184.557 158.647V151.122H188.224V158.534C188.224 160.945 189.397 162.149 191.744 162.149C192.891 162.149 193.761 161.86 194.357 161.277C194.961 160.687 195.264 159.775 195.264 158.534V151.122H198.877V158.647C198.877 160.619 198.251 162.138 196.997 163.203C195.744 164.263 193.984 164.79 191.717 164.79Z" fill="#F9F6F2"/>
<path d="M212.564 164.79C211.317 164.79 210.11 164.645 208.937 164.359C207.77 164.073 206.834 163.699 206.124 163.237L207.377 160.891C208.05 161.316 208.857 161.656 209.79 161.911C210.724 162.169 211.657 162.297 212.59 162.297C213.63 162.297 214.397 162.169 214.897 161.911C215.394 161.648 215.644 161.296 215.644 160.857C215.644 160.54 215.497 160.276 215.204 160.064C214.91 159.854 214.53 159.684 214.07 159.554C213.607 159.426 212.984 159.288 212.204 159.135C211.004 158.885 210.017 158.642 209.244 158.398C208.477 158.157 207.82 157.769 207.27 157.231C206.717 156.695 206.444 155.978 206.444 155.077C206.444 154.301 206.69 153.593 207.19 152.958C207.687 152.323 208.434 151.822 209.43 151.451C210.434 151.082 211.66 150.895 213.11 150.895C214.114 150.895 215.097 150.997 216.057 151.201C217.024 151.405 217.874 151.7 218.604 152.085L217.47 154.443C216.01 153.74 214.55 153.389 213.084 153.389C212.06 153.389 211.304 153.533 210.817 153.819C210.327 154.1 210.084 154.471 210.084 154.93C210.084 155.392 210.364 155.735 210.924 155.961C211.49 156.182 212.354 156.4 213.51 156.619C214.717 156.862 215.704 157.103 216.47 157.344C217.244 157.588 217.9 157.973 218.444 158.5C218.994 159.021 219.27 159.732 219.27 160.631C219.27 161.396 219.017 162.093 218.51 162.727C218.01 163.362 217.257 163.866 216.244 164.235C215.237 164.603 214.01 164.79 212.564 164.79Z" fill="#F9F6F2"/>
<path d="M148.319 177.335C148.699 177.435 148.992 177.605 149.199 177.845C149.412 178.081 149.519 178.372 149.519 178.718C149.519 179.203 149.295 179.577 148.852 179.84C148.405 180.106 147.752 180.237 146.892 180.237H143.492V174.649H146.705C147.505 174.649 148.119 174.783 148.545 175.046C148.979 175.304 149.199 175.655 149.199 176.1C149.199 176.372 149.119 176.619 148.959 176.837C148.805 177.049 148.592 177.216 148.319 177.335ZM145.012 175.624V176.939H146.519C146.892 176.939 147.175 176.888 147.372 176.78C147.565 176.667 147.665 176.502 147.665 176.281C147.665 176.063 147.565 175.902 147.372 175.794C147.175 175.681 146.892 175.624 146.519 175.624H145.012ZM146.785 179.262C147.185 179.262 147.485 179.211 147.692 179.103C147.895 178.99 147.999 178.817 147.999 178.582C147.999 178.115 147.592 177.879 146.785 177.879H145.012V179.262H146.785Z" fill="#F9F6F2"/>
<path d="M157.029 179.035H153.975L153.402 180.237H151.842L154.762 174.649H156.269L159.202 180.237H157.615L157.029 179.035ZM156.549 178.061L155.509 175.919L154.469 178.061H156.549Z" fill="#F9F6F2"/>
<path d="M167.935 174.649V180.237H166.695L163.415 176.848V180.237H161.908V174.649H163.175L166.441 178.038V174.649H167.935Z" fill="#F9F6F2"/>
<path d="M173.915 178.038L173.035 178.82V180.237H171.515V174.649H173.035V177.256L175.941 174.649H177.635L174.915 177.143L177.795 180.237H176.021L173.915 178.038Z" fill="#F9F6F2"/>
<path d="M202.05 177.284H237.257" stroke="#F9F6F2" stroke-width="2.00313"/>
<path d="M83.27 177.284H118.477" stroke="#F9F6F2" stroke-width="2.00313"/>
</g>
<defs>
<clipPath id="clip0_105_19">
<rect width="320" height="272" fill="white"/>
</clipPath>
</defs>
</svg>
